<?xml version="1.0" encoding="UTF-8"?>
<svg xmlns="http://www.w3.org/2000/svg" style="display: none;">
  <!-- GitHub-Icon -->
  <symbol id="icon-github" viewBox="0 0 24 24">
    <path d="M12 .297c-6.63 0-12 5.373-12 12 0 5.303 3.438 9.8 8.205 11.387.6.113.82-.258.82-.577v-2.234c-3.338.726-4.033-1.415-4.033-1.415-.546-1.387-1.333-1.756-1.333-1.756-1.089-.745.084-.729.084-.729 1.205.084 1.84 1.236 1.84 1.236 1.07 1.835 2.809 1.305 3.495.998.108-.775.418-1.305.76-1.605-2.665-.305-5.467-1.332-5.467-5.931 0-1.31.468-2.381 1.235-3.221-.123-.305-.535-1.533.117-3.194 0 0 1.008-.322 3.301 1.23a11.52 11.52 0 0 1 3.003-.405 11.5 11.5 0 0 1 3.003.405c2.292-1.552 3.298-1.23 3.298-1.23.653 1.661.242 2.889.119 3.194.769.84 1.235 1.911 1.235 3.221 0 4.609-2.807 5.624-5.479 5.921.43.372.823 1.102.823 2.222v3.293c0 .322.218.694.825.576C20.565 22.092 24 17.592 24 12.297 24 5.67 18.627.297 12 .297z" fill="currentColor"/>
  </symbol>

  <!-- External-Link-Icon (View My Work) -->
  <symbol id="icon-external-link" viewBox="0 0 24 24">
    <path d="M14 3h7v7h-2V6.414l-9.293 9.293-1.414-1.414L17.586 5H14V3z" fill="currentColor"/>
    <path d="M5 5h5V3H5a2 2 0 0 0-2 2v14a2 2 0 0 0 2 2h14a2 2 0 0 0 2-2v-5h-2v5H5V5z" fill="currentColor"/>
  </symbol>
</svg>
